<svg xmlns="http://www.w3.org/2000/svg" width="19.15" height="26" viewBox="0 0 19.15 26">
  <defs>
    <style>
      .cls-1 {
        fill: #fff;
        fill-rule: evenodd;
      }
    </style>
  </defs>
  <path id="Composite_Path" data-name="Composite Path" class="cls-1" d="M1322.27,763.287a9.58,9.58,0,0,0-9.57,9.572,9.266,9.266,0,0,0,.84,3.907c2.39,5.237,6.98,10.766,8.33,12.335a0.534,0.534,0,0,0,.4.186,0.518,0.518,0,0,0,.4-0.186c1.35-1.569,5.94-7.1,8.34-12.335a9.412,9.412,0,0,0,.83-3.907A9.58,9.58,0,0,0,1322.27,763.287Zm0,14.544a4.973,4.973,0,1,1,4.97-4.972A4.977,4.977,0,0,1,1322.27,777.831Z" transform="translate(-1312.69 -763.281)"/>
</svg>
