<svg xmlns="http://www.w3.org/2000/svg" width="24.88" height="24.781" viewBox="0 0 24.88 24.781">
  <defs>
    <style>
      .cls-1 {
        fill: #fff;
        fill-rule: evenodd;
      }
    </style>
  </defs>
  <path class="cls-1" d="M1085.36,783.711l-3.83-3.837a2,2,0,0,0-2.82.054l-1.94,1.932c-0.12-.068-0.24-0.138-0.38-0.213a19.253,19.253,0,0,1-4.65-3.362,19.472,19.472,0,0,1-3.37-4.658c-0.07-.129-0.14-0.254-0.2-0.372l1.29-1.295,0.64-.639a1.994,1.994,0,0,0,.05-2.821l-3.83-3.837a2,2,0,0,0-2.82.053l-1.08,1.087,0.02,0.029a6.493,6.493,0,0,0-.89,1.572,6.922,6.922,0,0,0-.39,1.594c-0.51,4.2,1.41,8.038,6.62,13.247,7.2,7.2,13,6.655,13.25,6.629a6.543,6.543,0,0,0,1.6-.4,6.129,6.129,0,0,0,1.56-.887l0.03,0.022,1.09-1.074A2,2,0,0,0,1085.36,783.711Z" transform="translate(-1061.06 -764.094)"/>
</svg>
